<?xml version="1.0" encoding="utf-8"?>
<svg xmlns="http://www.w3.org/2000/svg" viewBox="108.0568 60.004 268.1516 402.0089" width="268.152px" height="402.009px" preserveAspectRatio="none"><g id="object-4" transform="matrix(0.10000000149011612, 0, 0, -0.10000000149011612, 95.33992004394531, 356.3490600585938)"><path d="M 2198.19 2500.63 C 2164.83 2467.26 2020.24 2364.38 1875.65 2272.63 C 1731.07 2180.87 1586.48 2064.09 1550.33 2011.26 C 1466.91 1888.91 1466.91 1719.3 1547.55 1585.84 C 1603.16 1496.86 1608.72 1449.59 1608.72 1054.75 C 1608.72 629.333 1608.72 623.772 1539.21 579.283 C 1503.06 554.259 1464.13 534.795 1455.79 534.795 C 1447.45 534.795 1450.45 1273.81 1441.89 1499.42 C 1441.89 1499.42 1412.54 1967.12 1432.8 2176.96 C 1439.59 2247.29 1504.06 2309.05 1496.71 2301.35 C 1466.17 2269.35 1358.03 2265.42 1330.23 2212.59 C 1205.1 1981.81 912.23 1978.77 1042.91 1998.24 C 1209.84 2060.74 999.786 1969.55 1019.25 1958.43 C 1060.96 1930.62 1077.64 946.313 1033.15 932.411 C 1019.25 926.85 971.98 949.094 933.053 979.68 C 830.173 1060.32 832.954 1174.32 941.395 1296.66 L 1024.81 1391.2 L 944.175 1474.61 C 866.32 1549.69 863.54 1563.59 891.345 1641.45 C 938.614 1763.79 894.126 1880.57 796.807 1891.69 C 743.977 1897.26 713.391 1883.35 691.147 1838.86 C 646.658 1761.01 710.611 1713.74 777.343 1774.91 C 799.588 1797.16 830.173 1805.5 838.515 1794.38 C 885.784 1749.89 846.857 1660.91 727.294 1533.01 L 596.609 1393.98 L 699.488 1310.56 C 755.099 1263.29 802.368 1207.68 802.368 1185.44 C 802.368 1110.37 724.513 993.582 652.219 954.655 L 579.926 915.728 L 685.586 823.97 L 788.465 732.213 L 741.196 646.016 C 638.317 462.501 721.733 273.425 880.223 329.036 C 963.639 356.841 999.786 470.843 935.834 509.77 C 871.881 551.478 852.418 537.576 863.54 465.282 C 880.223 384.646 855.198 359.622 791.246 384.646 C 724.513 409.671 738.416 509.77 827.393 648.797 C 910.809 779.482 1052.62 921.289 1055.4 879.581 C 1055.4 865.678 1055.4 743.335 1055.4 607.089 L 1055.4 356.841 L 908.028 259.522 C 752.319 153.862 691.147 67.666 691.147 -54.677 C 691.147 -202.05 855.198 -268.78 952.517 -163.12 C 1013.69 -93.605 999.786 -7.408 927.492 -7.408 C 883.003 -7.408 874.662 -24.092 880.223 -82.483 C 891.345 -168.68 855.198 -182.58 791.246 -115.85 C 738.416 -63.019 738.416 -65.8 788.465 31.519 C 835.734 126.057 985.883 256.742 1044.27 256.742 C 1080.42 256.742 1085.98 -313.07 1074.86 -529.95 C 1066.52 -755.18 1055.4 -802.45 988.664 -899.76 C 832.954 -1127.8 913.589 -1105.5 1188.86 -844.15 C 1308.42 -730.15 1450.23 -616.15 1505.84 -593.91 C 1564.23 -571.66 1608.72 -546.64 1608.72 -538.29 C 1608.72 -532.73 1572.58 -507.71 1525.31 -482.69 C 1444.67 -440.98 1441.89 98.252 1441.89 270.645 C 1441.89 370.744 1453.01 451.379 1464.13 451.379 C 1475.26 451.379 1544.77 415.232 1614.28 370.744 C 1750.53 284.547 1839.51 176.107 1825.6 117.715 C 1803.36 20.397 1903.46 101.032 2223.22 434.696 C 2515.18 740.554 2584.69 826.751 2637.52 965.777 C 2832.16 1480.17 2757.08 1855.55 2376.15 2278.19 C 2264.93 2400.53 2248.24 2431.12 2273.27 2478.39 C 2317.76 2559.02 2264.93 2572.92 2198.19 2500.63 Z M 2298.29 2191.99 C 2359.47 2125.26 2440.1 2022.38 2481.81 1963.99 C 2576.35 1819.4 2645.86 1535.79 2623.62 1393.98 C 2612.49 1332.81 2598.59 1288.32 2593.03 1293.88 C 2584.69 1299.44 2556.88 1385.64 2529.08 1485.74 C 2448.44 1780.47 2270.49 2033.5 2075.85 2136.38 C 2031.36 2158.63 1998 2186.43 1998 2197.55 C 1998 2217.02 2137.02 2311.55 2167.61 2314.33 C 2178.73 2314.33 2237.12 2258.72 2298.29 2191.99 Z M 1333.45 2030.72 C 1336.23 1980.67 1341.79 1633.11 1344.57 1257.73 C 1347.35 882.361 1352.91 545.917 1355.69 506.99 C 1358.47 468.062 1352.91 379.085 1341.79 306.791 C 1333.45 231.717 1347.57 -385.14 1361.48 -432.41 C 1389.28 -507.49 1375.16 -529.95 1294.52 -593.91 L 1188.42 -663.42 L 1186.08 -474.34 C 1174.96 -371.46 1166.62 643.236 1163.84 1132.61 L 1161.06 2019.6 L 1225.01 2069.65 C 1313.99 2139.16 1330.67 2133.6 1333.45 2030.72 Z M 1758.87 1841.64 C 1761.65 1633.11 1753.31 1591.4 1719.94 1596.96 C 1667.11 1608.08 1644.87 2019.6 1694.92 2080.77 C 1714.38 2103.01 1733.85 2114.14 1742.19 2105.8 C 1750.53 2100.23 1756.09 1980.67 1758.87 1841.64 Z M 2011.9 2039.06 C 2231.56 1936.18 2390.05 1685.93 2445.66 1346.71 C 2481.81 1129.83 2454 915.728 2367.81 743.335 C 2309.42 629.333 2137.02 451.379 2081.41 451.379 C 1992.43 451.379 2003.56 484.745 2137.02 612.65 C 2212.1 684.944 2281.61 776.701 2289.95 821.19 C 2320.54 937.972 2281.61 1082.56 2192.63 1185.44 C 2145.36 1238.27 2109.22 1310.56 2109.22 1349.49 C 2109.22 1432.91 2150.93 1471.83 2175.95 1410.66 C 2198.19 1352.27 2276.05 1357.83 2276.05 1421.78 C 2276.05 1449.59 2256.59 1488.52 2234.34 1507.98 C 2125.9 1596.96 1953.51 1419 2025.8 1288.32 C 2050.83 1238.27 2045.27 1227.15 1986.87 1202.12 C 1911.8 1174.32 1878.43 1088.12 1892.34 962.997 C 1900.68 887.922 1909.02 882.361 2011.9 882.361 C 2117.56 882.361 2123.12 887.922 2123.12 965.777 C 2123.12 1021.39 2109.22 1049.19 2081.41 1049.19 C 2053.61 1049.19 2042.48 1026.95 2045.27 988.021 C 2050.83 940.752 2039.7 924.069 1998 924.069 C 1922.92 924.069 1922.92 1063.1 1995.22 1129.83 C 2070.29 1196.56 2148.14 1165.97 2206.54 1046.41 C 2264.93 921.289 2242.68 810.067 2131.46 684.944 C 2006.34 543.137 1953.51 520.892 1867.31 576.503 L 1797.8 623.772 L 1811.7 1040.85 L 1828.38 1457.93 L 1953.51 1535.79 C 2109.22 1635.88 2175.95 1733.2 2153.71 1827.74 C 2123.12 1952.87 1939.61 1969.55 1895.12 1852.77 C 1872.87 1791.6 1959.07 1708.18 2003.56 1752.67 C 2025.8 1774.91 2025.8 1794.38 2000.78 1822.18 C 1975.75 1855.55 1978.53 1866.67 2009.12 1877.79 C 2128.68 1925.06 2114.78 1722.08 1992.43 1635.88 C 1909.02 1574.71 1792.24 1574.71 1814.48 1635.88 C 1822.82 1660.91 1831.16 1772.13 1831.16 1886.13 C 1831.16 2116.92 1836.72 2119.7 2011.9 2039.06 Z M 1603.16 1735.98 L 1592.04 1660.91 L 1558.67 1735.98 C 1536.43 1794.38 1536.43 1833.3 1561.45 1902.82 L 1594.82 1994.57 L 1603.16 1902.82 C 1608.72 1852.77 1608.72 1777.69 1603.16 1735.98 Z M 1742.19 1129.83 C 1747.75 868.459 1739.41 785.043 1708.82 743.335 C 1669.89 693.285 1667.11 726.652 1664.33 1085.34 C 1664.33 1393.98 1672.67 1482.96 1700.48 1474.61 C 1722.72 1466.27 1736.63 1366.17 1742.19 1129.83 Z M 1964.63 367.963 C 1967.41 356.841 1953.51 331.816 1928.48 312.353 C 1892.34 281.767 1870.09 290.108 1781.12 370.744 C 1725.5 423.574 1667.11 473.623 1653.21 484.745 C 1639.31 495.868 1642.09 520.892 1661.55 545.917 C 1692.14 582.064 1714.38 573.722 1825.6 487.526 C 1897.9 434.696 1959.07 379.085 1964.63 367.963 Z" style="" id="object-0"/><path d="M 1984.18 2889.15 C 1946.83 2848.42 1793.88 2710.81 1664.84 2598.75 C 1403.38 2361.07 1366.03 2238.81 1624.1 2449.36 C 1810.86 2602.15 1848.21 2612.35 1929.7 2520.68 C 1977.24 2469.74 1980.63 2439.21 1950.07 2384.88 C 1905.93 2299.99 1807.46 2289.78 1821.04 2371.25 C 1827.83 2405.2 1807.46 2435.76 1773.5 2442.57 C 1732.76 2449.36 1712.38 2432.37 1712.38 2391.63 C 1712.38 2252.41 1892.35 2194.69 1997.61 2299.99 C 2079.11 2381.43 2062.13 2479.91 1946.68 2588.58 L 1841.42 2687.04 C 1841.42 2687.04 2053.57 2848.42 2063.75 2892.57 C 2090.92 2987.64 2072.46 2987.64 1984.18 2889.15 Z" style="transform-box: fill-box; transform-origin: 50% 50%;" id="object-1" transform="matrix(-1, 0, 0, -1, 0.000144, -0.000057)"/><path d="M 2583.77 631.446 C 2583.77 626.274 2609.57 577.226 2637.99 525.619 C 2715.4 393.989 2697.33 202.994 2596.67 99.725 C 2483.11 -19.003 2333.41 -65.438 2126.93 -44.807 C 1584.9 6.828 1613.3 6.828 1566.84 -57.708 C 1512.63 -137.7 1515.21 -181.61 1579.74 -251.29 C 1626.2 -302.9 1652.01 -308.07 1747.51 -295.17 C 1876.57 -279.68 1886.89 -300.34 1819.78 -416.48 C 1773.32 -493.92 1783.64 -563.6 1848.17 -586.82 C 1912.7 -612.65 1930.77 -571.33 1873.98 -530.04 C 1822.36 -491.33 1822.36 -491.33 1871.4 -452.6 C 1899.79 -431.97 1930.77 -416.48 1941.09 -416.48 C 1987.55 -416.48 1982.39 -331.31 1935.93 -284.85 C 1889.47 -238.39 1861.08 -230.63 1752.67 -243.53 C 1600.39 -261.61 1553.93 -207.41 1654.59 -127.39 C 1711.38 -80.926 1742.35 -78.368 1990.13 -93.827 C 2348.9 -117.07 2508.92 -75.782 2645.72 73.922 C 2761.86 202.994 2779.94 391.403 2692.18 548.837 C 2653.45 615.959 2583.77 670.151 2583.77 631.446 Z" style="transform-box: fill-box; transform-origin: 50% 50%;" id="object-2" transform="matrix(0.994535, 0.104406, -0.104406, 0.994535, 0.000011, -0.000007)"/><path d="M 1497.46 2366.75 C 1473.17 2338.19 1388.13 2269.15 1310.38 2212.04 C 1128.17 2078.74 1047.99 2073.99 880.345 2188.24 C 715.132 2300.1 647.103 2309.64 477.032 2252.49 C 246.22 2171.55 127.169 2028.75 127.169 1833.58 C 127.169 1624.12 219.257 1543.15 428.203 1545.54 C 559.403 1547.9 544.824 1602.65 428.203 1602.65 C 275.138 1602.65 234.072 1602.69 185.48 1716.94 C 124.739 1857.38 221.924 2004.94 399.286 2047.79 C 443.018 2059.69 508.616 2043.04 610.659 2000.19 C 739.428 1943.08 778.303 1935.93 902.211 1950.2 L 1045.56 1966.88 C 1045.56 1966.88 1385.7 2178.7 1502.32 2295.34 C 1560.63 2352.46 1609.22 2402.45 1609.22 2407.2 C 1609.22 2435.76 1536.34 2409.59 1497.46 2366.75 Z M 802.599 2123.95 C 877.915 2069.23 882.775 2035.89 814.747 2035.89 C 754.006 2035.89 540.2 2135.85 554.779 2157.29 C 579.075 2197.75 724.85 2178.7 802.599 2123.95 Z" style="" id="object-3"/></g></svg>